<?xml version="1.0" standalone="no"?>
<!DOCTYPE svg PUBLIC "-//W3C//DTD SVG 20010904//EN"
 "http://www.w3.org/TR/2001/REC-SVG-20010904/DTD/svg10.dtd">
<svg version="1.0" xmlns="http://www.w3.org/2000/svg"
 width="512.000000pt" height="512.000000pt" viewBox="0 0 512.000000 512.000000"
 preserveAspectRatio="xMidYMid meet">

<g transform="translate(0.000000,512.000000) scale(0.100000,-0.100000)"
fill="#000000" stroke="none">
<path d="M836 5104 c-328 -59 -598 -314 -689 -649 -29 -107 -30 -316 -3 -419
103 -387 417 -648 809 -673 53 -3 97 -9 97 -13 0 -4 7 -47 15 -96 40 -233 145
-455 299 -637 l58 -67 -81 -86 c-93 -100 -182 -226 -239 -339 -78 -155 -96
-220 -72 -266 13 -24 61 -49 94 -49 34 0 82 44 97 88 20 63 108 229 160 299
65 90 189 214 203 205 6 -4 47 -31 91 -60 160 -107 360 -189 570 -233 91 -20
143 -22 590 -28 l490 -6 47 -28 c67 -39 103 -103 103 -182 -1 -66 -17 -104
-61 -149 -53 -52 -78 -59 -237 -65 -148 -6 -149 -6 -173 -34 -49 -57 -18 -149
56 -163 16 -4 30 -7 30 -8 0 0 -20 -71 -43 -156 l-44 -154 -39 74 c-96 183
-298 310 -495 310 -58 0 -70 -3 -92 -26 -34 -33 -42 -75 -23 -111 23 -45 39
-54 113 -63 123 -16 209 -60 277 -143 62 -76 80 -129 80 -242 1 -88 -2 -107
-25 -156 -15 -31 -43 -75 -64 -98 -37 -41 -37 -41 -110 -41 -69 0 -75 -2 -104
-31 -43 -42 -43 -95 -1 -137 l30 -30 212 -4 c193 -3 217 -5 260 -25 89 -41
150 -102 186 -186 l12 -28 -492 4 c-407 3 -506 7 -568 21 -247 53 -451 160
-624 326 -142 136 -251 299 -316 473 -23 60 -62 97 -105 97 -36 0 -84 -37 -93
-72 -12 -44 -1 -82 63 -215 75 -157 162 -280 285 -403 203 -203 448 -336 738
-402 92 -20 125 -22 680 -25 668 -5 658 -6 735 72 25 25 52 64 61 87 8 24 54
182 101 353 136 490 117 439 173 460 138 51 274 169 331 287 93 197 77 412
-54 749 l-19 47 195 695 194 695 74 43 c100 59 232 192 293 294 208 352 154
790 -132 1075 -342 343 -892 345 -1236 5 -39 -38 -92 -103 -118 -142 -26 -40
-48 -73 -50 -73 -2 0 -39 16 -82 36 -437 203 -946 203 -1383 3 -46 -22 -85
-39 -87 -39 -2 0 -24 33 -50 73 -188 292 -547 444 -898 381z m335 -209 c118
-30 206 -81 300 -175 47 -47 98 -107 113 -134 l28 -49 -33 -26 c-19 -14 -58
-48 -87 -75 -29 -27 -54 -47 -55 -45 -2 2 -10 19 -17 38 -25 62 -96 147 -160
189 -250 167 -581 64 -691 -216 -33 -82 -33 -242 0 -324 46 -118 152 -223 268
-269 45 -17 80 -23 156 -23 82 -1 96 -3 91 -16 -3 -8 -13 -59 -22 -114 l-17
-99 -77 6 c-306 24 -545 219 -624 507 -24 87 -24 253 0 340 69 252 270 442
526 496 79 16 212 12 301 -11z m3071 11 c260 -50 464 -240 534 -496 24 -87 24
-253 0 -340 -33 -121 -85 -210 -180 -307 -63 -66 -81 -75 -90 -45 -9 26 -75
91 -113 111 l-34 17 41 29 c55 40 124 132 151 203 33 82 33 242 0 324 -70 178
-244 298 -431 298 -175 0 -359 -119 -420 -271 -7 -19 -15 -36 -17 -38 -1 -2
-29 20 -60 50 -32 30 -71 64 -87 75 l-29 21 29 49 c38 65 143 175 210 220 145
96 327 132 496 100z m-1405 -295 c425 -87 782 -357 938 -709 15 -35 16 -47 7
-60 -6 -10 -18 -29 -26 -43 -8 -14 -90 -293 -181 -620 -91 -327 -168 -602
-171 -611 -3 -9 -37 -38 -77 -63 -261 -167 -591 -246 -902 -215 -402 40 -765
242 -973 542 -378 549 -208 1257 388 1612 152 90 366 163 550 185 114 15 330
5 447 -18z m-1722 -139 c47 -24 95 -73 121 -122 26 -49 26 -171 0 -220 -26
-49 -74 -98 -121 -123 -30 -16 -58 -22 -115 -22 -64 0 -82 4 -122 27 -203 120
-173 406 52 479 41 14 142 3 185 -19z m3120 0 c160 -82 192 -286 65 -412 -128
-129 -330 -94 -416 70 -13 25 -19 56 -19 110 0 83 15 121 69 178 31 34 70 58
116 73 41 14 142 3 185 -19z m-84 -783 c82 -23 156 -47 165 -54 10 -7 17 -24
16 -41 -1 -16 -103 -389 -226 -829 l-224 -800 -70 -67 c-39 -37 -84 -74 -101
-83 l-31 -16 0 66 c0 71 -28 169 -62 220 -12 16 -40 50 -63 75 l-43 45 210
750 c116 413 215 756 220 763 16 19 52 15 209 -29z m-128 -1989 c33 -160 29
-257 -16 -350 -64 -134 -251 -230 -394 -201 -103 20 -153 80 -153 183 1 99 66
187 166 223 139 50 263 124 338 204 17 17 33 28 37 24 4 -5 14 -42 22 -83z
m-718 -568 c49 -90 145 -159 248 -177 20 -4 37 -13 37 -20 0 -10 -95 -357
-166 -603 l-15 -53 -31 62 c-45 89 -142 188 -231 234 -39 21 -73 39 -75 40 -2
2 39 152 90 335 l92 331 11 -48 c6 -26 24 -72 40 -101z"/>
<path d="M1858 3731 c-27 -24 -33 -36 -33 -71 0 -35 6 -47 33 -71 22 -20 43
-29 67 -29 24 0 45 9 67 29 27 24 33 36 33 71 0 35 -6 47 -33 71 -22 20 -43
29 -67 29 -24 0 -45 -9 -67 -29z"/>
<path d="M3128 3731 c-27 -24 -33 -36 -33 -71 0 -35 6 -47 33 -71 22 -20 43
-29 67 -29 24 0 45 9 67 29 27 24 33 36 33 71 0 35 -6 47 -33 71 -22 20 -43
29 -67 29 -24 0 -45 -9 -67 -29z"/>
<path d="M2502 3649 c-139 -23 -251 -125 -287 -264 -18 -70 -20 -240 -4 -317
23 -109 92 -198 194 -251 55 -29 68 -32 155 -32 85 0 101 3 150 28 102 52 171
139 196 246 19 77 18 253 -1 326 -28 105 -91 182 -190 233 -36 18 -60 24 -140
36 -11 2 -44 -1 -73 -5z m132 -222 c63 -36 76 -72 76 -213 0 -109 -2 -124 -23
-154 -12 -19 -37 -43 -55 -53 -67 -39 -153 -16 -199 53 -21 30 -23 45 -23 152
0 142 12 176 74 213 51 31 99 31 150 2z"/>
<path d="M991 1546 c-59 -33 -67 -102 -17 -152 66 -66 165 -24 166 69 0 75
-81 121 -149 83z"/>
</g>
</svg>
